<?xml version="1.0" encoding="UTF-8" standalone="no"?>
<svg
   version="1.1"
   width="1301.3605"
   height="329"
   viewBox="-179 380.3 130.13605 32.9"
   xml:space="preserve"
   id="svg12"
   sodipodi:docname="EPA_logo.svg"
   inkscape:export-filename="C:\Users\phazer\Desktop\swmm-python.png"
   inkscape:export-xdpi="30.094044"
   inkscape:export-ydpi="30.094044"
   inkscape:version="1.1 (c68e22c387, 2021-05-23)"
   xmlns:inkscape="http://www.inkscape.org/namespaces/inkscape"
   xmlns:sodipodi="http://sodipodi.sourceforge.net/DTD/sodipodi-0.dtd"
   xmlns:xlink="http://www.w3.org/1999/xlink"
   xmlns="http://www.w3.org/2000/svg"
   xmlns:svg="http://www.w3.org/2000/svg"><defs
     id="defs16"><linearGradient
       id="linearGradient2795"><stop
         style="stop-color:#b8b8b8;stop-opacity:0.49803922"
         offset="0"
         id="stop2797" /><stop
         style="stop-color:#7f7f7f;stop-opacity:0"
         offset="1"
         id="stop2799" /></linearGradient><linearGradient
       id="linearGradient2787"><stop
         style="stop-color:#7f7f7f;stop-opacity:0.5"
         offset="0"
         id="stop2789" /><stop
         style="stop-color:#7f7f7f;stop-opacity:0"
         offset="1"
         id="stop2791" /></linearGradient><linearGradient
       id="linearGradient3676"><stop
         style="stop-color:#b2b2b2;stop-opacity:0.5"
         offset="0"
         id="stop3678" /><stop
         style="stop-color:#b3b3b3;stop-opacity:0"
         offset="1"
         id="stop3680" /></linearGradient><linearGradient
       id="linearGradient3236"><stop
         style="stop-color:#f4f4f4;stop-opacity:1"
         offset="0"
         id="stop3244" /><stop
         style="stop-color:#ffffff;stop-opacity:1"
         offset="1"
         id="stop3240" /></linearGradient><linearGradient
       id="linearGradient4671"><stop
         style="stop-color:#ffd43b;stop-opacity:1"
         offset="0"
         id="stop4673" /><stop
         style="stop-color:#ffe873;stop-opacity:1"
         offset="1"
         id="stop4675" /></linearGradient><linearGradient
       id="linearGradient4689"><stop
         style="stop-color:#5a9fd4;stop-opacity:1"
         offset="0"
         id="stop4691" /><stop
         style="stop-color:#306998;stop-opacity:1"
         offset="1"
         id="stop4693" /></linearGradient><linearGradient
       x1="224.23996"
       y1="144.75717"
       x2="-65.308502"
       y2="144.75717"
       id="linearGradient2987"
       xlink:href="#linearGradient4671"
       gradientUnits="userSpaceOnUse"
       gradientTransform="translate(100.2702,99.61116)" /><linearGradient
       x1="172.94208"
       y1="77.475983"
       x2="26.670298"
       y2="76.313133"
       id="linearGradient2990"
       xlink:href="#linearGradient4689"
       gradientUnits="userSpaceOnUse"
       gradientTransform="translate(100.2702,99.61116)" /><linearGradient
       x1="224.23996"
       y1="144.75717"
       x2="-65.308502"
       y2="144.75717"
       id="linearGradient2255"
       xlink:href="#linearGradient4671"
       gradientUnits="userSpaceOnUse"
       gradientTransform="matrix(0.562541,0,0,0.567972,-11.5974,-7.60954)" /><linearGradient
       x1="172.94208"
       y1="76.176224"
       x2="26.670298"
       y2="76.313133"
       id="linearGradient2258"
       xlink:href="#linearGradient4689"
       gradientUnits="userSpaceOnUse"
       gradientTransform="matrix(0.562541,0,0,0.567972,-11.5974,-7.60954)" /><radialGradient
       cx="61.518883"
       cy="132.28575"
       r="29.036913"
       fx="61.518883"
       fy="132.28575"
       id="radialGradient2801"
       xlink:href="#linearGradient2795"
       gradientUnits="userSpaceOnUse"
       gradientTransform="matrix(1,0,0,0.177966,0,108.7434)" /><linearGradient
       x1="150.96111"
       y1="192.35176"
       x2="112.03144"
       y2="137.27299"
       id="linearGradient1475"
       xlink:href="#linearGradient4671"
       gradientUnits="userSpaceOnUse"
       gradientTransform="matrix(0.04026731,0,0,0.04065607,-161.5788,397.51418)" /><linearGradient
       x1="26.648937"
       y1="20.603781"
       x2="135.66525"
       y2="114.39767"
       id="linearGradient1478"
       xlink:href="#linearGradient4689"
       gradientUnits="userSpaceOnUse"
       gradientTransform="matrix(0.04026731,0,0,0.04065607,-175.56842,399.58831)" /><radialGradient
       cx="61.518883"
       cy="132.28575"
       r="29.036913"
       fx="61.518883"
       fy="132.28575"
       id="radialGradient1480"
       xlink:href="#linearGradient2795"
       gradientUnits="userSpaceOnUse"
       gradientTransform="matrix(0,-0.0239947,0.1054668,3.7915457e-8,-147.40467,403.36645)" /></defs><sodipodi:namedview
     id="namedview14"
     pagecolor="#505050"
     bordercolor="#ffffff"
     borderopacity="1"
     inkscape:pageshadow="0"
     inkscape:pageopacity="0"
     inkscape:pagecheckerboard="1"
     showgrid="false"
     inkscape:zoom="0.52584493"
     inkscape:cx="622.80718"
     inkscape:cy="280.50095"
     inkscape:window-width="2660"
     inkscape:window-height="1081"
     inkscape:window-x="339"
     inkscape:window-y="91"
     inkscape:window-maximized="0"
     inkscape:current-layer="layer1"
     fit-margin-top="10"
     fit-margin-left="10"
     fit-margin-right="10"
     fit-margin-bottom="10"
     lock-margins="true" /><style
     type="text/css"
     id="style2">.st0{fill:#0071bc;}</style><g
     inkscape:groupmode="layer"
     id="layer10"
     inkscape:label="Base"
     style="display:inline"
     transform="translate(0.5,0.5)"><g
       id="g5620"><path
         id="path4"
         style="fill:#ffdc51;fill-opacity:1;stroke-width:1"
         class="st0"
         d="m -147.6,396.1 c -8.2,0.3 -14.6,7.4 -14.8,15.6 8.3,-0.5 14.8,-7.3 14.8,-15.6 z m -6.27578,4.80312 h 0.72031 c 0.5585,0 0.82192,0.41777 0.95977,0.97305 0.19184,0.77124 0.20037,1.34937 0,1.95059 -0.19399,0.58398 -0.40197,0.97304 -0.95977,0.97304 h -0.95957 -1.91699 v 0.24395 h 1.91699 v 0.73144 c 0,0.55385 -0.47639,0.83529 -0.95957,0.9752 -0.7269,0.21091 -1.30966,0.17863 -1.91719,0 -0.50735,-0.14923 -0.95957,-0.45505 -0.95957,-0.9752 v -1.82753 c 0,-0.52586 0.43446,-0.97539 0.95957,-0.97539 h 1.91719 c 0.63879,0 1.19883,-0.55606 1.19883,-1.2168 z m -1.07813,4.62833 c -0.19825,0 -0.36015,0.16285 -0.36015,0.36445 0,0.20231 0.1619,0.36699 0.36015,0.36699 0.19895,0 0.36016,-0.16468 0.36016,-0.36699 0,-0.2016 -0.16121,-0.36445 -0.36016,-0.36445 z" /><path
         id="path1519"
         style="fill:#407daf;fill-opacity:1;stroke-width:1"
         class="st0"
         d="m -178.5,396.1 c 0.1,8.3 6.6,15.1 14.9,15.6 -0.2,-8.2 -6.6,-15.3 -14.9,-15.6 z m 8.43574,4.82598 c 0.3281,-10e-4 0.6703,0.0235 1,0.0783 0.52084,0.0868 0.95957,0.47751 0.95957,0.99765 v 1.82754 c 0,0.53591 -0.42594,0.97539 -0.95957,0.97539 h -1.91699 c -0.65088,0 -1.19902,0.55872 -1.19902,1.19219 v 0.87695 h -0.65996 c -0.5578,0 -0.8835,-0.40485 -1.01993,-0.97304 -0.18404,-0.76334 -0.17623,-1.21954 0,-1.95059 0.15277,-0.6378 0.64104,-0.97305 1.19883,-0.97305 h 0.72031 1.91934 v -0.24375 h -1.91934 v -0.73164 c 0,-0.55386 0.14759,-0.85416 0.95977,-0.99765 0.2757,-0.0488 0.58889,-0.0773 0.91699,-0.0783 z m -1.03789,0.58847 c -0.19897,0 -0.36015,0.16449 -0.36015,0.3668 0,0.2016 0.16118,0.36465 0.36015,0.36465 0.19824,0 0.36016,-0.16305 0.36016,-0.36465 0,-0.20231 -0.16192,-0.3668 -0.36016,-0.3668 z" /><path
         id="path1517"
         style="fill:#407daf;fill-opacity:1;stroke-width:1"
         class="st0"
         d="m -172.5,392.6 c 1.2,4.3 5,7.3 9.5,7.4 4.5,-0.1 8.3,-3.1 9.5,-7.4 -0.6,0.7 -1.3,1 -2.2,1 -0.9,0 -1.8,-0.3 -2.4,-1 -0.6,0.7 -1.5,1 -2.4,1 -0.9,0 -1.8,-0.3 -2.4,-1 -0.6,0.7 -1.5,1 -2.4,1 -0.9,0 -1.8,-0.3 -2.4,-1 -0.6,0.7 -1.5,1 -2.4,1 -0.9,0 -1.8,-0.3 -2.4,-1 z" /><path
         id="path1515"
         style="fill:#407daf;fill-opacity:1;stroke-width:1"
         class="st0"
         d="m -163,380.8 c -5.3,0 -9.6,4.3 -9.6,9.6 h 8.6 c -1.1,-0.4 -1.8,-1.4 -1.8,-2.6 0,-1.5 1.3,-2.8 2.8,-2.8 1.5,0 2.8,1.3 2.8,2.8 0,1.1 -0.7,2.2 -1.7,2.6 h 8.5 c 0,-5.3 -4.3,-9.6 -9.6,-9.6 z" /></g></g><g
     inkscape:groupmode="layer"
     id="layer2"
     inkscape:label="Layer 2"
     style="display:inline"
     transform="translate(0.5,0.5)"><path
       stroke-linejoin="round"
       d="m -164.33149,394.92377 0.57245,-1.7863 -0.45675,0.0555 0.56145,-1.02963 -0.43984,0.0535 0.8415,-1.97353 1.18418,-0.14402 -1.04977,1.67268 0.38909,-0.0473 -0.72446,1.10096 0.45676,-0.0555 z"
       stroke="#000000"
       stroke-miterlimit="4"
       stroke-width="0.852069"
       fill="#fff100"
       id="path859"
       style="fill:#ffdc51;fill-opacity:1;stroke:none;stroke-opacity:1" /></g><g
     inkscape:groupmode="layer"
     id="layer1"
     inkscape:label="Layer 1"
     style="display:inline"
     transform="translate(0.5,0.5)"><path
       id="path1515-3"
       style="fill:#407daf;fill-opacity:1;stroke-width:1"
       class="st0"
       d="m -163,380.8 c -5.3,0 -9.6,4.3 -9.6,9.6 h 19.2 c 0,-5.3 -4.3,-9.6 -9.6,-9.6 z"
       sodipodi:nodetypes="sccs" /><g
       id="layer2-1"
       style="display:inline;fill:#afd8ff;fill-opacity:1"
       transform="matrix(0.07866997,0,0,0.07866997,-169.61591,380.18717)"><path
         id="rect168-8"
         style="fill:#afd8ff;fill-opacity:1;stroke-width:0.678"
         d="m 58.208333,129.64583 h 13.229168 l -10.823254,26.59735 c -3.968751,9.26041 -16.404168,6.08542 -12.700001,-2.11667 z" /><path
         id="rect168-8-0"
         style="fill:#afd8ff;fill-opacity:1;stroke-width:0.678"
         d="m 119.0625,129.64583 h 13.22916 l -11.49696,31.27872 c -3.47586,9.45645 -15.86813,6.30699 -12.7,-2.11667 z" /><path
         id="rect168-8-0-8"
         style="fill:#afd8ff;fill-opacity:1;stroke-width:0.678"
         d="m 99.21875,129.64583 h 13.22914 l -6.61455,17.19792 c -3.96877,9.26041 -16.404179,6.08542 -12.700012,-2.11667 z" /><path
         id="rect168-8-0-8-2"
         style="fill:#afd8ff;fill-opacity:1;stroke-width:0.678"
         d="m 38.364583,129.64583 h 13.22915 l -7.395243,19.30748 c -3.968763,9.26041 -16.404175,6.08542 -12.700008,-2.11667 z" /></g><g
       id="layer3"
       style="display:inline"
       transform="matrix(0.37795276,0,0,0.37795276,-52.888476,339.90789)" /><g
       id="layer7"
       style="display:none"
       transform="matrix(0.37795276,0,0,0.37795276,-52.888476,339.90789)"><path
         id="rect8569-8"
         style="display:inline;fill:#3d7aab;fill-opacity:1;stroke-width:0.678"
         d="m 77.608183,172.14918 7.132897,-15.57941 -15.949414,6.14898 2.802929,11.4515 z" /><path
         id="path3351-2"
         style="display:inline;fill:#ffdd55;fill-opacity:1;stroke-width:0.678"
         d="m 90.752082,154.25208 -6.011002,2.31769 -7.132897,15.57941 17.112649,-5.75107 z" /></g><g
       id="layer8"
       style="display:none"
       transform="matrix(0.37795276,0,0,0.37795276,-44.537245,365.46988)"><path
         id="rect8569"
         style="display:inline;fill:#3d7aab;fill-opacity:1;stroke-width:2.56252"
         d="M 316.92578,593.05273 260,615 l 10.59375,43.28125 19.83594,-6.66602 z"
         transform="matrix(0.26458333,0,0,0.26458333,-22.095964,-67.632755)" /><path
         id="path3351"
         style="display:inline;fill:#ffdd55;fill-opacity:1;stroke-width:2.56252"
         d="m 343,583 -19.53516,7.53125 -26.92187,59.0293 L 358,628.90625 Z"
         transform="matrix(0.26458333,0,0,0.26458333,-22.095964,-67.632755)" /></g><g
       id="layer1-2"
       transform="matrix(0.1018022,0,0,0.1018022,-171.46291,377.45752)"
       style="display:inline"><ellipse
         style="fill:#a1a1a1;fill-opacity:1;stroke-width:0.296268"
         id="path31"
         cx="41.654232"
         cy="111.03957"
         rx="17.058268"
         ry="15.962766" /><ellipse
         style="fill:#a1a1a1;fill-opacity:1;stroke-width:0.523783"
         id="path31-3"
         cx="71.51815"
         cy="96.298325"
         rx="32.526829"
         ry="26.165569" /><ellipse
         style="fill:#a1a1a1;fill-opacity:1;stroke-width:0.325146"
         id="path31-1"
         cx="112.62884"
         cy="101.96344"
         rx="19.27137"
         ry="17.018229" /><ellipse
         style="fill:#a1a1a1;fill-opacity:1;stroke-width:0.231303"
         id="path31-12"
         cx="127.86406"
         cy="114.97984"
         rx="13.801818"
         ry="12.025364" /><rect
         style="fill:#a1a1a1;fill-opacity:1;stroke-width:0.665928"
         id="rect38"
         width="86.783325"
         height="21.166674"
         x="41.275002"
         y="105.83333" /></g><text
       xml:space="preserve"
       style="font-style:normal;font-weight:normal;font-size:16.2379px;line-height:1.25;font-family:sans-serif;fill:#407daf;fill-opacity:1;stroke:none;stroke-width:0.405947"
       x="-143.79666"
       y="400.22827"
       id="text2284"><tspan
         sodipodi:role="line"
         id="tspan2282"
         style="font-style:normal;font-variant:normal;font-weight:500;font-stretch:normal;font-size:16.2379px;font-family:'Advent Pro';-inkscape-font-specification:'Advent Pro, Medium';font-variant-ligatures:normal;font-variant-caps:normal;font-variant-numeric:normal;font-variant-east-asian:normal;fill:#407daf;fill-opacity:1;stroke-width:0.405947"
         x="-143.79666"
         y="400.22827">swmm-pandas</tspan></text></g></svg>
